<?xml version="1.0" encoding="utf-8"?>
<!-- Generator: Adobe Illustrator 14.0.0, SVG Export Plug-In . SVG Version: 6.00 Build 43363)  -->
<!DOCTYPE svg PUBLIC "-//W3C//DTD SVG 1.1//EN" "http://www.w3.org/Graphics/SVG/1.1/DTD/svg11.dtd">
<svg version="1.1" id="レイヤー_1" xmlns="http://www.w3.org/2000/svg" xmlns:xlink="http://www.w3.org/1999/xlink" x="0px"
	 y="0px" width="595.28px" height="841.89px" viewBox="0 0 595.28 841.89" enable-background="new 0 0 595.28 841.89"
	 xml:space="preserve">
<path d="M154.431,188.673c-23.865,0-47.146,8.943-69.193,26.583c-7.12,5.703-9.979,15.346-7.122,24.003
	c1.978,5.979,6.427,10.712,11.99,13.181c-5.83,5.38-11.52,12.425-16.599,21.63c-4.445,8.049-3.361,18.117,2.704,25.042
	c1.241,1.422,2.651,2.665,4.188,3.708c-2.185,3.438-4.262,7.125-6.146,11.057c-10.186,21.25-12.134,44.288-5.833,67.418
	c-5.287,4.14-9.129,8.612-11.953,12.242c-8.622,11.071-11.308,25.742-7.359,40.244c2.617,9.598,10.301,26.235,32.787,39.237
	c-1.151,16.169,0.176,39.135,13.307,55.705c0.998,1.263,2.048,2.467,3.149,3.614c-6.12,29.857,0.873,60.25,21.207,92.506
	l0.004-0.003c2.114,3.287,7.4,9.239,14.416,15.548c2.232,4.081,4.639,7.978,7.181,11.619c9.87,14.145,22.368,25.726,37.26,34.55
	c-0.038,0.281-0.076,0.563-0.114,0.847c-3.096,0.57-5.806,1.207-7.772,1.67l-0.731,0.173c-16.495,3.833-31.768,20.257-35.512,38.2
	c-3.069,14.709,1.993,28.621,13.544,37.219c3.674,2.742,8.106,4.201,12.797,4.201c3.501,0,6.927-0.841,9.999-2.358
	c3.959,3.621,9.092,5.619,14.518,5.619c3.677,0,7.32-0.949,10.535-2.748c12.683-7.063,15.437-21.27,17.082-29.759
	c0.071-0.371,0.142-0.734,0.211-1.088c0.256,0.088,0.496,0.176,0.713,0.261c0.283,0.188,0.57,0.366,0.86,0.54
	c1.714,1.346,3.247,2.161,4.103,2.615l0.04,0.021c0.34,0.214,0.686,0.416,1.035,0.609c-1.301,13.04,3.84,25.069,14.224,32.801
	c3.694,2.748,8.12,4.201,12.799,4.201c3.502,0,6.93-0.841,10-2.361c3.983,3.63,9.108,5.622,14.524,5.622
	c3.657,0,7.284-0.94,10.486-2.719c12.723-7.102,15.477-21.305,17.123-29.789c0.071-0.372,0.142-0.734,0.21-1.087
	c0.256,0.089,0.5,0.179,0.719,0.264c0.281,0.188,0.57,0.366,0.861,0.542c1.711,1.339,3.24,2.153,4.094,2.607l0.037,0.021
	c3.375,2.115,7.256,3.239,11.23,3.239c8.736,0,16.871-5.586,20.246-13.897c3.523-8.698,2.279-18.503-3.41-26.907
	c-4.633-6.842-10.781-10.918-14.037-12.74c-1.223-0.686-2.473-1.297-3.746-1.828c0.059-0.659,0.111-1.315,0.164-1.972
	c17.574-5.985,32.207-15.293,43.699-27.797c8.125-0.023,16.377-0.642,24.531-1.843c4.002-0.586,7.977-1.304,12.143-2.188
	l0.393-0.083l0.391-0.102c0.957-0.249,21.941-5.868,30.752-21.671c29.342-7.673,59.803-23.109,68-41.138
	c2.426-5.33,3.529-10.814,3.303-16.243c21.063-7.37,41.262-19.874,46.553-41.036c3.674-14.719,0.088-25.477-4.291-32.471
	c25.846-20.176,53.436-50.296,48.266-84.429c-3.846-25.412-17.297-45.836-37.875-57.509c-11.016-6.248-23.533-9.552-36.205-9.552
	c-9.344,0-18.381,1.762-26.863,5.235c-10.619,4.345-29.963,15.854-75.072,65.383c-11.232,12.332-22.305,25.106-32.299,36.945
	l-22.748,27.261c-0.383-0.439-0.77-0.876-1.158-1.31c-6.227-7.538-12.947-13.811-19.986-18.659
	c-8.453-6.574-16.979-11.792-25.146-15.935c4.588-3.817,9.152-8.08,13.502-12.812c18.988-20.66,28.996-44.624,29.744-71.228
	c1.264-44.843-10.656-80.846-35.43-107.005c-19.4-20.487-46.849-33.653-76.287-36.819
	C229.399,217.805,198.04,188.673,154.431,188.673L154.431,188.673z"/>
<g>
	<path fill="#FFF100" d="M310.039,718.078c-3.693-2.071-7.51-2.631-11.662-2.063c-1.078,0.149-2.495,0.727-3.734,1.468
		c2.484-12.53,3.123-25.679,3.659-38.016c0.858-19.72,0.187-40.391-8.054-58.611c-1.331-2.947-6.234-1.566-6.098,1.567
		c0.766,17.47,2.01,34.734,1.059,52.243c-0.719,13.241-3.496,26.826-4.579,40.282c-6.691-0.879-16.465,1.57-20.625,2.537
		c-16.266,3.779-32.118,30.938-15.309,43.45c1.846,1.374,4.882,0.384,5.918-1.523c5.033-9.237,0.984-22.588,13.182-27.161
		c3.973-1.485,7.898-3.088,11.859-4.608c-1.598,2.194-2.934,4.461-3.938,6.428c-3.572,7.008-9.777,23.03-2.962,29.733
		c1.137,1.116,2.859,1.356,4.26,0.577c6.272-3.501,7.402-14.068,8.776-20.376c1.421-6.513,4.667-10.245,9.223-12.903
		c4.56-2.656,16.163,1.592,18.206,3.007c0.486,0.422,1.045,0.715,1.645,0.943c0.029,0.064,0.189,0.217,0.52,0.486
		c0.861,0.847,1.916,1.195,2.895,1.834c2.113,1.383,4.486-0.073,5.318-2.122C322.436,728.25,315.584,721.184,310.039,718.078"/>
	<path fill="#FFF100" d="M223.923,707.366c-3.697-2.072-7.513-2.633-11.663-2.062c-1.081,0.146-2.494,0.724-3.736,1.466
		c2.484-12.531,3.126-25.677,3.662-38.014c0.854-19.726,0.183-40.392-8.054-58.614c-1.336-2.947-6.236-1.57-6.102,1.565
		c0.768,17.475,2.013,34.733,1.06,52.247c-0.72,13.242-3.494,26.825-4.579,40.283c-6.691-0.882-16.465,1.564-20.625,2.534
		c-16.266,3.782-32.12,30.938-15.308,43.45c1.841,1.374,4.879,0.387,5.919-1.521c5.032-9.24,0.983-22.591,13.181-27.161
		c3.973-1.487,7.9-3.091,11.856-4.612c-1.595,2.198-2.93,4.463-3.935,6.428c-3.574,7.01-9.779,23.033-2.963,29.734
		c1.137,1.122,2.862,1.356,4.261,0.574c6.275-3.495,7.402-14.066,8.777-20.373c1.418-6.513,4.664-10.246,9.225-12.902
		c4.559-2.658,16.161,1.591,18.205,3.006c0.483,0.42,1.043,0.718,1.642,0.943c0.028,0.064,0.19,0.217,0.521,0.489
		c0.86,0.849,1.915,1.192,2.892,1.831c2.115,1.385,4.488-0.07,5.322-2.124C236.316,717.532,229.469,710.473,223.923,707.366"/>
	<path fill="#8DC556" d="M267.291,637.037c0,0-9.896-0.778-15.691-7.412c-2.367-2.704-5.892-9.671-5.549-18.41
		c0.627-16.005,2.142-48.141-7.095-72.251c-15.689-40.973-40.535-61.895-81.021-52.445c-1.038,0.243-25.597,5.771-35.874,30.205
		c-10.482,24.926-14.323,55.614,12.723,98.518c1.062,1.856,39.174,49.104,110.15,49.104c3.552,0,7.217-0.109,11.192-0.361
		c3.248-0.355,17.7-3.412,22.242-11.547C280.686,648.281,279.927,637.037,267.291,637.037z"/>
	<g>
		<g>
			<path fill="#00B0A0" d="M359.615,530.61c-0.938,1.188-1.434,1.826-1.434,1.826L359.615,530.61z"/>
		</g>
		<path fill="#00B0A0" d="M571.191,432.268c-3.004-19.838-13.291-35.658-28.961-44.548c-14.557-8.257-32.268-9.498-47.365-3.315
			c-32.414,13.263-106.42,103.658-132.193,136.005v-0.032l-3.869,4.907c-0.445,0.565-0.863,1.096-1.256,1.594
			c-26.418-42.032-65.404-56.227-85.694-60.914c21.465-10.758,63.604-38.284,65.034-89.077c1.125-39.894-9.139-71.562-30.506-94.124
			c-18.073-19.084-44.305-30.625-72.233-31.833c-6.305-8.2-36.504-44.257-79.718-44.257c-19.676,0-39.172,7.616-57.948,22.638
			c-1.283,1.027-1.79,2.744-1.274,4.304c0.516,1.562,1.95,2.635,3.592,2.697c0.298,0.01,26.829,1.187,36.182,17.124
			c-0.902-0.064-1.875-0.101-2.906-0.101c-9.924,0-28.68,3.822-42.807,29.429c-0.8,1.449-0.606,3.245,0.483,4.488
			c1.088,1.247,2.843,1.677,4.386,1.077c0.076-0.031,7.705-2.965,15.619-2.965c3.507,0,6.448,0.579,8.795,1.723
			c-13.509,10.705-51.958,47.37-28.199,102.451c0.085,0.195,0.185,0.384,0.299,0.563l58.697,91.72
			c-22.741,63.073-20.374,121.266,6.571,159.888c21.447,30.735,57.368,46.981,103.878,46.981c4.842,0,9.861-0.176,14.924-0.522
			c35.957-2.467,62.199-15.366,78.001-38.337c5.02-7.296,8.686-15.168,11.314-23.239l0.461,5.288l3.254,0.319
			c4.623,0.451,9.238,0.662,13.818,0.662c47.334-0.003,90.852-22.593,97.201-36.558c2.049-4.504,2.252-8.935,0.611-13.176
			c-1.168-3.01-3.15-5.506-5.256-7.486c16.379-3.568,48.305-13.058,53.422-33.533c1.973-7.901,0.949-14.613-3.041-19.948
			c-3.576-4.781-8.93-7.505-13.701-9.053C530.668,500.394,576.453,467.01,571.191,432.268z"/>
	</g>
	<path fill="#FFF100" d="M223.205,458.174c-1.852-2.573-45.931-63.012-99.673-70.509c-5.191-0.728-10.061-1.099-14.462-1.099
		c-21.428,0-31.113,8.659-38.396,18.021c-5.113,6.565-6.643,15.489-4.199,24.463c2.203,8.08,9.653,23.027,34.814,33.478
		c-1.39,7.919-5.514,37.937,8.019,55.017c6.113,7.729,14.977,11.827,26.344,12.205l1.47,0.023c44.86,0,84.514-66.623,86.183-69.465
		l0.645-1.098L223.205,458.174z"/>
	<path d="M166.26,472.043c6.527,0,12.159-0.407,16.819-1.212c-5.668,10.432-23.472,39.755-45.015,41.291
		c-0.775,0.061-1.514,0.09-2.235,0.09h-0.006c-6.354-0.006-11.023-2.033-14.288-6.205c-7.259-9.284-5.577-27.835-3.188-38.602
		C127.994,469.017,148.525,472.043,166.26,472.043z"/>
	<path fill="#FFF100" d="M271.943,465.981c0,0-7.415,1.667-11.252,2.323c-3.836,0.656-32.679,6.763-52.838,9.788
		c-20.162,3.023-46.783,33.724-46.783,33.724s-22.791,0.163-20.67,46.781c4.392,96.419,79.245,108.272,79.245,108.272
		s-11.853-11.295-11.853-89.824C207.792,488.472,271.943,465.981,271.943,465.981z"/>
	<path fill="#FFFFFF" d="M245.714,355.077c0,24.787-16.781,44.893-37.474,44.893c-20.698,0-37.48-20.106-37.48-44.893
		c0-24.792,16.782-44.89,37.48-44.89C228.933,310.187,245.714,330.284,245.714,355.077z"/>
	<path d="M216.889,358.787c0,14.101-9.586,25.531-21.413,25.531c-11.834,0-21.42-11.43-21.42-25.531s9.586-25.538,21.42-25.538
		C207.303,333.249,216.889,344.687,216.889,358.787z"/>
	<path fill="#FFFFFF" d="M194.647,349.726c0,7.28-5.906,13.178-13.181,13.178c-7.278,0-13.179-5.897-13.179-13.178
		c0-7.282,5.9-13.181,13.179-13.181C188.741,336.545,194.647,342.444,194.647,349.726z"/>
	<path fill="#8DC556" d="M399.002,620.854c0,0-9.902,0.671-16.604-5.045c-2.734-2.332-7.236-8.712-8.17-17.408
		c-1.709-15.926-4.889-47.941-17.535-70.45c-21.49-38.247-49.117-55.333-87.794-40.09c-0.993,0.391-24.485,9.437-31.096,35.106
		c-6.741,26.187-6.07,57.105,26.93,95.616c1.321,1.682,45.906,42.876,116.126,32.543c3.514-0.516,7.123-1.16,11.02-1.989
		c3.162-0.82,17.016-5.95,20.326-14.659C413.893,630.029,411.506,619.015,399.002,620.854z"/>
</g>
</svg>
