<?xml version="1.0" encoding="utf-8"?>
<!-- Generator: Adobe Illustrator 14.0.0, SVG Export Plug-In . SVG Version: 6.00 Build 43363)  -->
<!DOCTYPE svg PUBLIC "-//W3C//DTD SVG 1.1//EN" "http://www.w3.org/Graphics/SVG/1.1/DTD/svg11.dtd">
<svg version="1.1" id="レイヤー_1" xmlns="http://www.w3.org/2000/svg" xmlns:xlink="http://www.w3.org/1999/xlink" x="0px"
	 y="0px" width="595.28px" height="841.89px" viewBox="0 0 595.28 841.89" enable-background="new 0 0 595.28 841.89"
	 xml:space="preserve">
<g>
	<path fill="#FFF100" d="M311.844,716.2c-3.693-2.072-7.511-2.631-11.662-2.063c-1.078,0.148-2.495,0.727-3.734,1.467
		c2.484-12.529,3.123-25.678,3.66-38.016c0.856-19.719,0.186-40.39-8.054-58.611c-1.333-2.947-6.235-1.565-6.099,1.568
		c0.767,17.469,2.011,34.734,1.06,52.243c-0.72,13.241-3.497,26.825-4.579,40.282c-6.691-0.879-16.465,1.57-20.625,2.537
		c-16.266,3.779-32.119,30.938-15.31,43.449c1.847,1.375,4.883,0.386,5.919-1.523c5.032-9.236,0.983-22.588,13.182-27.16
		c3.973-1.486,7.899-3.088,11.86-4.609c-1.599,2.195-2.934,4.461-3.938,6.428c-3.573,7.008-9.779,23.031-2.962,29.734
		c1.136,1.117,2.859,1.355,4.26,0.578c6.272-3.501,7.401-14.07,8.776-20.377c1.421-6.514,4.667-10.246,9.223-12.904
		c4.56-2.656,16.163,1.592,18.206,3.008c0.486,0.422,1.045,0.715,1.645,0.943c0.029,0.064,0.188,0.217,0.52,0.486
		c0.861,0.846,1.916,1.195,2.895,1.834c2.112,1.383,4.486-0.074,5.318-2.123C324.24,726.372,317.389,719.306,311.844,716.2"/>
	<path fill="#FFF100" d="M225.728,705.487c-3.697-2.071-7.513-2.633-11.663-2.061c-1.081,0.146-2.495,0.723-3.737,1.466
		c2.485-12.532,3.126-25.677,3.663-38.015c0.854-19.725,0.183-40.391-8.055-58.613c-1.335-2.947-6.235-1.57-6.101,1.565
		c0.768,17.474,2.013,34.733,1.059,52.247c-0.719,13.242-3.493,26.825-4.578,40.283c-6.691-0.883-16.465,1.564-20.625,2.533
		c-16.266,3.783-32.12,30.938-15.308,43.451c1.841,1.373,4.879,0.387,5.919-1.521c5.032-9.24,0.982-22.59,13.181-27.16
		c3.973-1.487,7.899-3.092,11.856-4.613c-1.595,2.199-2.93,4.463-3.934,6.428c-3.574,7.011-9.78,23.033-2.963,29.734
		c1.136,1.123,2.861,1.357,4.261,0.574c6.275-3.494,7.402-14.066,8.777-20.373c1.418-6.512,4.664-10.246,9.225-12.902
		c4.558-2.658,16.162,1.592,18.204,3.006c0.483,0.421,1.044,0.719,1.643,0.943c0.028,0.064,0.19,0.217,0.521,0.49
		c0.86,0.848,1.915,1.191,2.892,1.83c2.115,1.385,4.488-0.07,5.321-2.123C238.12,715.653,231.274,708.595,225.728,705.487"/>
	<path fill="#8DC556" d="M269.094,635.159c0,0-9.896-0.778-15.691-7.412c-2.367-2.705-5.891-9.672-5.549-18.41
		c0.627-16.006,2.143-48.141-7.093-72.251c-15.69-40.973-40.535-61.896-81.021-52.445c-1.04,0.242-25.597,5.771-35.875,30.205
		c-10.482,24.925-14.323,55.614,12.723,98.518c1.062,1.856,39.174,49.103,110.15,49.103c3.552,0,7.217-0.109,11.192-0.361
		c3.248-0.354,17.699-3.412,22.242-11.546C282.491,646.403,281.732,635.159,269.094,635.159z"/>
	<g>
		<g>
			<path fill="#00B0A0" d="M361.42,528.731c-0.938,1.188-1.435,1.827-1.435,1.827L361.42,528.731z"/>
		</g>
		<path fill="#00B0A0" d="M572.995,430.39c-3.002-19.838-13.29-35.659-28.961-44.549c-14.557-8.258-32.268-9.498-47.364-3.315
			c-32.414,13.263-106.421,103.658-132.193,136.006v-0.032l-3.869,4.907c-0.446,0.565-0.863,1.095-1.256,1.594
			c-26.419-42.033-65.404-56.227-85.694-60.915c21.465-10.757,63.604-38.283,65.034-89.077c1.125-39.894-9.14-71.562-30.506-94.123
			c-18.073-19.084-44.307-30.625-72.233-31.833c-6.305-8.2-36.504-44.257-79.718-44.257c-19.677,0-39.172,7.616-57.948,22.638
			c-1.283,1.027-1.79,2.744-1.275,4.304c0.516,1.562,1.949,2.635,3.592,2.697c0.296,0.01,26.829,1.186,36.181,17.124
			c-0.902-0.064-1.875-0.102-2.906-0.102c-9.924,0-28.681,3.822-42.807,29.429c-0.8,1.448-0.606,3.244,0.483,4.488
			c1.088,1.247,2.843,1.678,4.386,1.076c0.076-0.03,7.705-2.964,15.619-2.964c3.507,0,6.448,0.578,8.795,1.722
			c-13.508,10.706-51.958,47.371-28.199,102.452c0.084,0.194,0.184,0.384,0.298,0.563l58.699,91.72
			c-22.743,63.073-20.375,121.265,6.571,159.888c21.446,30.734,57.367,46.981,103.878,46.981c4.84,0,9.861-0.176,14.924-0.522
			c35.957-2.467,62.199-15.367,78.001-38.337c5.019-7.296,8.686-15.169,11.314-23.239l0.461,5.287l3.254,0.32
			c4.623,0.451,9.237,0.662,13.817,0.662c47.336-0.004,90.852-22.593,97.201-36.559c2.05-4.503,2.254-8.934,0.611-13.175
			c-1.168-3.011-3.149-5.507-5.256-7.487c16.38-3.568,48.305-13.057,53.423-33.533c1.974-7.9,0.949-14.613-3.041-19.948
			c-3.577-4.78-8.93-7.504-13.7-9.053C532.472,498.516,578.257,465.131,572.995,430.39z"/>
	</g>
	<path fill="#FFF100" d="M225.008,456.295c-1.851-2.573-45.93-63.011-99.671-70.508c-5.192-0.729-10.061-1.099-14.462-1.099
		c-21.429,0-31.114,8.658-38.395,18.02c-5.115,6.566-6.643,15.49-4.201,24.464c2.204,8.079,9.654,23.026,34.815,33.477
		c-1.39,7.92-5.514,37.937,8.019,55.017c6.113,7.729,14.977,11.828,26.343,12.205l1.469,0.023c44.862,0,84.515-66.622,86.183-69.464
		l0.646-1.099L225.008,456.295z"/>
	<path d="M168.064,470.165c6.527,0,12.159-0.407,16.818-1.212c-5.667,10.431-23.47,39.754-45.014,41.291
		c-0.775,0.061-1.513,0.09-2.235,0.09h-0.007c-6.354-0.007-11.022-2.033-14.287-6.205c-7.258-9.285-5.577-27.835-3.188-38.603
		C129.798,467.139,150.33,470.165,168.064,470.165z"/>
	<path fill="#FFF100" d="M273.747,464.104c0,0-7.416,1.666-11.251,2.322c-3.836,0.657-32.68,6.764-52.839,9.788
		c-20.162,3.023-46.782,33.725-46.782,33.725s-22.792,0.162-20.671,46.781c4.392,96.418,79.246,108.271,79.246,108.271
		s-11.853-11.295-11.853-89.824C209.597,486.593,273.747,464.104,273.747,464.104z"/>
	<path fill="#FFFFFF" d="M247.519,353.198c0,24.787-16.781,44.894-37.474,44.894c-20.698,0-37.48-20.106-37.48-44.894
		c0-24.792,16.782-44.891,37.48-44.891C230.737,308.308,247.519,328.406,247.519,353.198z"/>
	<path d="M218.694,356.909c0,14.101-9.586,25.53-21.414,25.53c-11.835,0-21.421-11.43-21.421-25.53
		c0-14.102,9.586-25.539,21.421-25.539C209.108,331.371,218.694,342.808,218.694,356.909z"/>
	<path fill="#FFFFFF" d="M196.452,347.847c0,7.281-5.907,13.179-13.181,13.179c-7.279,0-13.18-5.897-13.18-13.179
		s5.9-13.181,13.18-13.181C190.545,334.666,196.452,340.565,196.452,347.847z"/>
	<path fill="#8DC556" d="M400.806,618.976c0,0-9.902,0.67-16.604-5.045c-2.733-2.332-7.234-8.712-8.17-17.408
		c-1.709-15.926-4.888-47.941-17.535-70.45c-21.489-38.248-49.116-55.334-87.795-40.09c-0.993,0.391-24.484,9.436-31.095,35.106
		c-6.742,26.187-6.071,57.105,26.93,95.615c1.321,1.682,45.906,42.877,116.127,32.543c3.515-0.516,7.124-1.16,11.021-1.988
		c3.16-0.82,17.016-5.951,20.324-14.659C415.698,628.151,413.31,617.137,400.806,618.976z"/>
</g>
</svg>
